<?xml version="1.0" encoding="UTF-8"?>
<svg width="40px" height="40px" viewBox="0 0 40 40" version="1.1" xmlns="http://www.w3.org/2000/svg" xmlns:xlink="http://www.w3.org/1999/xlink">
    <!-- Generator: Sketch 42 (36781) - http://www.bohemiancoding.com/sketch -->
    <title>Fill 1</title>
    <desc>Created with Sketch.</desc>
    <defs></defs>
    <g id="Symbols" stroke="none" stroke-width="1" fill="none" fill-rule="evenodd">
        <g id="FB" fill="#FFFFFF">
            <path d="M25.9196111,11.7659444 L23.1246111,11.7659444 C22.1373889,11.7659444 21.9318333,12.1703889 21.9318333,13.1909444 L21.9318333,15.6576111 L25.9196111,15.6576111 L25.5357222,19.9876111 L21.9318333,19.9876111 L21.9318333,32.9220556 L16.7668333,32.9220556 L16.7668333,20.0420556 L14.0807222,20.0420556 L14.0807222,15.6576111 L16.7668333,15.6576111 L16.7668333,12.2048333 C16.7668333,8.96427778 18.5001667,7.27205556 22.3435,7.27205556 L25.9196111,7.27205556 L25.9196111,11.7659444 Z M20.0001667,-0.000166666667 C8.95405556,-0.000166666667 0.000166666667,8.95372222 0.000166666667,19.9998333 C0.000166666667,31.0459444 8.95405556,39.9998333 20.0001667,39.9998333 C31.0457222,39.9998333 40.0001667,31.0459444 40.0001667,19.9998333 C40.0001667,8.95372222 31.0457222,-0.000166666667 20.0001667,-0.000166666667 L20.0001667,-0.000166666667 Z" id="Fill-1"></path>
        </g>
    </g>
</svg>