<?xml version="1.0" encoding="UTF-8"?>
<svg width="40px" height="40px" viewBox="0 0 40 40" version="1.1" xmlns="http://www.w3.org/2000/svg" xmlns:xlink="http://www.w3.org/1999/xlink">
    <!-- Generator: Sketch 42 (36781) - http://www.bohemiancoding.com/sketch -->
    <title>IG</title>
    <desc>Created with Sketch.</desc>
    <defs></defs>
    <g id="Symbols" stroke="none" stroke-width="1" fill="none" fill-rule="evenodd">
        <g id="IG" fill="#FFFFFF">
            <path d="M26.7462111,15.0572778 C25.9545444,15.0572778 25.3128778,14.4156111 25.3128778,13.6239444 C25.3128778,12.8322778 25.9545444,12.1906111 26.7462111,12.1906111 C27.5378778,12.1906111 28.1795444,12.8322778 28.1795444,13.6239444 C28.1795444,14.4156111 27.5378778,15.0572778 26.7462111,15.0572778 M20.3701,26.1333889 C16.9828778,26.1333889 14.2367667,23.3872778 14.2367667,19.9995 C14.2367667,16.6122778 16.9828778,13.8661667 20.3701,13.8661667 C23.7578778,13.8661667 26.5039889,16.6122778 26.5039889,19.9995 C26.5039889,23.3872778 23.7578778,26.1333889 20.3701,26.1333889 M29.6817667,12.9550556 C29.4656556,12.3978333 29.2062111,12.0000556 28.7884333,11.5817222 C28.3706556,11.1639444 27.9723222,10.9050556 27.4151,10.6883889 C26.9939889,10.5250556 26.3617667,10.3300556 25.1967667,10.2772778 C23.9373222,10.2195 23.5601,10.2078333 20.3701,10.2078333 C17.1812111,10.2078333 16.8034333,10.2195 15.5439889,10.2772778 C14.3795444,10.3300556 13.7467667,10.5250556 13.3262111,10.6883889 C12.7684333,10.9050556 12.3706556,11.1639444 11.9523222,11.5817222 C11.5345444,12.0000556 11.2756556,12.3978333 11.0589889,12.9550556 C10.8956556,13.3761667 10.7006556,14.0083889 10.6478778,15.1728333 C10.5901,16.4328333 10.5778778,16.8106111 10.5778778,19.9995 C10.5778778,23.1889444 10.5901,23.5667222 10.6478778,24.8261667 C10.7006556,25.9911667 10.8956556,26.6233889 11.0589889,27.0445 C11.2756556,27.6017222 11.5345444,27.9995 11.9528778,28.4178333 C12.3706556,28.8356111 12.7684333,29.0945 13.3262111,29.3111667 C13.7467667,29.4745 14.3795444,29.6695 15.5439889,29.7222778 C16.8034333,29.7800556 17.1806556,29.7917222 20.3701,29.7917222 C23.5601,29.7917222 23.9373222,29.7800556 25.1967667,29.7222778 C26.3617667,29.6695 26.9939889,29.4745 27.4151,29.3111667 C27.9723222,29.0945 28.3706556,28.8356111 28.7884333,28.4178333 C29.2062111,27.9995 29.4656556,27.6017222 29.6817667,27.0445 C29.8451,26.6233889 30.0401,25.9911667 30.0928778,24.8261667 C30.1506556,23.5667222 30.1623222,23.1889444 30.1623222,19.9995 C30.1623222,16.8106111 30.1506556,16.4328333 30.0928778,15.1728333 C30.0401,14.0083889 29.8451,13.3761667 29.6817667,12.9550556 M24.3517667,19.9995 C24.3517667,22.1983889 22.5689889,23.9811667 20.3701,23.9811667 C18.1712111,23.9811667 16.3889889,22.1983889 16.3889889,19.9995 C16.3889889,17.8006111 18.1712111,16.0183889 20.3701,16.0183889 C22.5689889,16.0183889 24.3517667,17.8006111 24.3517667,19.9995 M32.2434333,24.9245 C32.1851,26.1956111 31.9834333,27.0639444 31.6878778,27.8239444 C31.3828778,28.6095 30.9739889,29.2756111 30.3101,29.9395 C29.6462111,30.6033889 28.9801,31.0117222 28.1945444,31.3172778 C27.4345444,31.6122778 26.5667667,31.8145 25.2951,31.8722778 C24.0212111,31.9306111 23.6139889,31.9439444 20.3701,31.9439444 C17.1267667,31.9439444 16.7195444,31.9306111 15.4456556,31.8722778 C14.1745444,31.8145 13.3062111,31.6122778 12.5462111,31.3172778 C11.7606556,31.0117222 11.0945444,30.6033889 10.4306556,29.9395 C9.76676667,29.2756111 9.35843333,28.6095 9.05287778,27.8239444 C8.75787778,27.0639444 8.55565556,26.1956111 8.49787778,24.9245 C8.43954444,23.6506111 8.42565556,23.2433889 8.42565556,19.9995 C8.42565556,16.7561667 8.43954444,16.3489444 8.49787778,15.0750556 C8.55565556,13.8039444 8.75787778,12.9356111 9.05287778,12.1756111 C9.35843333,11.3900556 9.76676667,10.7239444 10.4306556,10.0600556 C11.0945444,9.39616667 11.7606556,8.98783333 12.5462111,8.68227778 C13.3062111,8.38727778 14.1745444,8.18505556 15.4456556,8.12727778 C16.7195444,8.06894444 17.1267667,8.05505556 20.3701,8.05505556 C23.6139889,8.05505556 24.0212111,8.06894444 25.2951,8.12727778 C26.5667667,8.18505556 27.4345444,8.38727778 28.1945444,8.68227778 C28.9801,8.98783333 29.6462111,9.39616667 30.3101,10.0600556 C30.9739889,10.7239444 31.3828778,11.3900556 31.6878778,12.1756111 C31.9834333,12.9356111 32.1851,13.8039444 32.2434333,15.0750556 C32.3012111,16.3489444 32.3145444,16.7561667 32.3145444,19.9995 C32.3145444,23.2433889 32.3012111,23.6506111 32.2434333,24.9245 M20.0001,-0.0005 C8.95454444,-0.0005 0.0001,8.95394444 0.0001,19.9995 C0.0001,31.0456111 8.95454444,39.9995 20.0001,39.9995 C31.0456556,39.9995 40.0001,31.0456111 40.0001,19.9995 C40.0001,8.95394444 31.0456556,-0.0005 20.0001,-0.0005" id="Fill-1"></path>
        </g>
    </g>
</svg>