<?xml version="1.0" encoding="utf-8"?>
<!-- Generator: Adobe Illustrator 14.0.0, SVG Export Plug-In . SVG Version: 6.00 Build 43363)  -->
<!DOCTYPE svg PUBLIC "-//W3C//DTD SVG 1.1//EN" "http://www.w3.org/Graphics/SVG/1.1/DTD/svg11.dtd">
<svg version="1.1" id="Layer_1" xmlns="http://www.w3.org/2000/svg" xmlns:xlink="http://www.w3.org/1999/xlink" x="0px" y="0px"
	 width="115px" height="115px" viewBox="0 0 115 115" enable-background="new 0 0 115 115" xml:space="preserve">
<g>
	<defs>
		<rect id="SVGID_1_" width="115" height="115"/>
	</defs>
	<clipPath id="SVGID_2_">
		<use xlink:href="#SVGID_1_"  overflow="visible"/>
	</clipPath>
	<path clip-path="url(#SVGID_2_)" fill="#FFFFFF" d="M57.48,94.783c10.337,0,19.694-4.189,26.467-10.961
		c1.209-1.21,2.303-2.526,3.34-3.891H27.678c1.037,1.364,2.129,2.681,3.337,3.891C37.79,90.594,47.145,94.783,57.48,94.783"/>
	<path clip-path="url(#SVGID_2_)" fill="#FFFFFF" d="M57.48,19.93c-10.335,0-19.691,4.185-26.465,10.961
		c-2.046,2.047-3.823,4.351-5.352,6.826h63.637c-1.531-2.475-3.307-4.779-5.354-6.826C77.175,24.115,67.817,19.93,57.48,19.93"/>
	<path clip-path="url(#SVGID_2_)" fill="#FFFFFF" d="M24.796,37.717c6.679-11.089,18.796-18.53,32.684-18.53
		s26.009,7.441,32.688,18.53h1.974C85.289,25.652,72.347,17.498,57.48,17.498c-14.865,0-27.805,8.154-34.658,20.219H24.796z"/>
	<path clip-path="url(#SVGID_2_)" fill="#FFFFFF" d="M88.211,79.932c-6.951,9.44-18.11,15.592-30.73,15.594
		c-12.62-0.002-23.777-6.153-30.726-15.594h-2.108c7.189,10.434,19.207,17.282,32.834,17.282c13.63,0,25.649-6.849,32.837-17.282
		H88.211z"/>
	<path clip-path="url(#SVGID_2_)" fill="#FFFFFF" d="M17.566,60.91h-2.204V48.064h3.092c2.475,0,3.738,1.05,3.738,3.789
		c0,2.064-0.801,2.903-1.546,3.237l1.866,5.82h-2.24l-1.565-5.319c-0.285,0.034-0.748,0.053-1.139,0.053V60.91z M17.566,53.829
		h0.784c1.19,0,1.635-0.447,1.635-1.976s-0.445-1.974-1.635-1.974h-0.784V53.829z"/>
	<rect x="24.557" y="48.064" clip-path="url(#SVGID_2_)" fill="#FFFFFF" width="2.207" height="12.846"/>
	<polygon clip-path="url(#SVGID_2_)" fill="#FFFFFF" points="33.702,48.064 35.872,48.064 33.184,60.91 30.98,60.91 28.292,48.064 
		30.462,48.064 32.064,56.977 32.1,56.977 	"/>
	<polygon clip-path="url(#SVGID_2_)" fill="#FFFFFF" points="37.098,60.911 37.098,48.065 43.003,48.065 43.003,49.986 
		39.304,49.986 39.304,53.293 42.151,53.293 42.151,55.216 39.304,55.216 39.304,58.99 43.252,58.99 43.252,60.911 	"/>
	<path clip-path="url(#SVGID_2_)" fill="#FFFFFF" d="M47.202,60.91h-2.204V48.064h3.092c2.475,0,3.738,1.05,3.738,3.789
		c0,2.064-0.803,2.903-1.548,3.237l1.868,5.82h-2.24l-1.565-5.319c-0.288,0.034-0.75,0.053-1.14,0.053V60.91z M47.202,53.829h0.782
		c1.195,0,1.638-0.447,1.638-1.976s-0.443-1.974-1.638-1.974h-0.782V53.829z"/>
	<polygon clip-path="url(#SVGID_2_)" fill="#FFFFFF" points="62.34,48.064 64.512,48.064 61.824,60.91 59.62,60.91 56.933,48.064 
		59.103,48.064 60.699,56.977 60.738,56.977 	"/>
	<path clip-path="url(#SVGID_2_)" fill="#FFFFFF" d="M66.359,60.91h-2.134l2.366-12.846h2.738l2.368,12.846h-2.134l-0.395-2.85
		h-2.416L66.359,60.91z M67.07,56.142h1.779l-0.867-5.516h-0.039L67.07,56.142z"/>
	<polygon clip-path="url(#SVGID_2_)" fill="#FFFFFF" points="72.871,60.911 72.871,48.065 75.078,48.065 75.078,58.99 78.545,58.99 
		78.545,60.911 	"/>
	<polygon clip-path="url(#SVGID_2_)" fill="#FFFFFF" points="79.791,60.911 79.791,48.065 81.996,48.065 81.996,58.99 85.466,58.99 
		85.466,60.911 	"/>
	<polygon clip-path="url(#SVGID_2_)" fill="#FFFFFF" points="86.815,60.911 86.815,48.065 92.723,48.065 92.723,49.986 
		89.023,49.986 89.023,53.293 91.869,53.293 91.869,55.216 89.023,55.216 89.023,58.99 92.973,58.99 92.973,60.911 	"/>
	<polygon clip-path="url(#SVGID_2_)" fill="#FFFFFF" points="98.699,60.911 96.493,60.911 96.493,55.572 93.824,48.065 
		96.066,48.065 97.613,52.955 97.649,52.955 99.125,48.065 101.369,48.065 98.699,55.572 	"/>
	<line clip-path="url(#SVGID_2_)" fill="#2D2D2D" x1="36.055" y1="67.591" x2="15.3" y2="67.591"/>
	<rect x="15.301" y="67.309" clip-path="url(#SVGID_2_)" fill="#FFFFFF" width="20.755" height="0.559"/>
	
		<rect x="15.301" y="67.309" clip-path="url(#SVGID_2_)" fill="none" stroke="#FFFFFF" stroke-width="0.5324" width="20.755" height="0.559"/>
	<line clip-path="url(#SVGID_2_)" fill="#2D2D2D" x1="99.799" y1="67.591" x2="79.044" y2="67.591"/>
	<rect x="79.043" y="67.312" clip-path="url(#SVGID_2_)" fill="#FFFFFF" width="20.756" height="0.556"/>
	
		<rect x="79.043" y="67.312" clip-path="url(#SVGID_2_)" fill="none" stroke="#FFFFFF" stroke-width="0.5324" width="20.756" height="0.556"/>
	<path clip-path="url(#SVGID_2_)" fill="#FFFFFF" d="M44.017,66.273c-0.275-0.932-0.786-1.479-1.552-1.479
		c-1.263,0-1.819,1.233-1.819,2.792c0,1.562,0.556,2.801,1.88,2.801c1.022,0,1.393-0.724,1.606-1.555l0.547,0.098
		c-0.24,1.137-0.83,1.93-2.164,1.93c-1.542,0-2.449-1.303-2.449-3.273c0-1.966,0.908-3.27,2.449-3.27
		c1.14,0,1.763,0.804,2.038,1.843L44.017,66.273z"/>
	<path clip-path="url(#SVGID_2_)" fill="none" stroke="#FFFFFF" stroke-width="0.5324" d="M44.017,66.273
		c-0.275-0.932-0.786-1.479-1.553-1.479c-1.263,0-1.818,1.233-1.818,2.792c0,1.563,0.556,2.801,1.88,2.801
		c1.022,0,1.393-0.725,1.605-1.555l0.547,0.098c-0.24,1.137-0.831,1.93-2.164,1.93c-1.542,0-2.449-1.304-2.449-3.273
		c0-1.966,0.907-3.27,2.449-3.27c1.14,0,1.763,0.804,2.038,1.843L44.017,66.273z"/>
	<polygon clip-path="url(#SVGID_2_)" fill="#FFFFFF" points="45.909,64.405 46.492,64.405 46.492,67.227 49.932,67.227 
		49.932,64.405 50.515,64.405 50.515,70.771 49.932,70.771 49.932,67.703 46.492,67.703 46.492,70.771 45.909,70.771 	"/>
	<polygon clip-path="url(#SVGID_2_)" fill="none" stroke="#FFFFFF" stroke-width="0.5324" points="45.909,64.405 46.492,64.405 
		46.492,67.227 49.932,67.227 49.932,64.405 50.515,64.405 50.515,70.772 49.932,70.772 49.932,67.704 46.492,67.704 46.492,70.772 
		45.909,70.772 	"/>
	<path clip-path="url(#SVGID_2_)" fill="#FFFFFF" d="M52.856,64.405v4.34c0,1.216,0.592,1.642,1.719,1.642
		c1.131,0,1.721-0.426,1.721-1.642v-4.34h0.585v4.288c0,1.444-0.76,2.166-2.306,2.166c-1.542,0-2.3-0.722-2.3-2.166v-4.288H52.856z"
		/>
	<path clip-path="url(#SVGID_2_)" fill="none" stroke="#FFFFFF" stroke-width="0.5324" d="M52.856,64.405v4.34
		c0,1.216,0.592,1.642,1.718,1.642c1.131,0,1.721-0.426,1.721-1.642v-4.34h0.585v4.289c0,1.444-0.76,2.165-2.307,2.165
		c-1.542,0-2.3-0.721-2.3-2.165v-4.289H52.856z"/>
	<path clip-path="url(#SVGID_2_)" fill="#FFFFFF" d="M62.988,70.773h-0.637l-1.48-2.909h-1.65v2.909H58.64v-6.367h2.153
		c1.252,0,1.957,0.687,1.957,1.729c0,0.838-0.416,1.393-1.322,1.625L62.988,70.773z M59.221,67.387h1.572
		c0.848,0,1.373-0.469,1.373-1.252s-0.46-1.255-1.373-1.255h-1.572V67.387z"/>
	<path clip-path="url(#SVGID_2_)" fill="none" stroke="#FFFFFF" stroke-width="0.5324" d="M62.988,70.773h-0.637l-1.48-2.909h-1.65
		v2.909H58.64v-6.368h2.153c1.252,0,1.957,0.688,1.957,1.729c0,0.837-0.416,1.393-1.322,1.625L62.988,70.773z M59.221,67.387h1.572
		c0.848,0,1.373-0.469,1.373-1.252s-0.46-1.254-1.373-1.254h-1.572V67.387z"/>
	<path clip-path="url(#SVGID_2_)" fill="#FFFFFF" d="M68.013,66.273c-0.272-0.932-0.786-1.479-1.552-1.479
		c-1.264,0-1.821,1.233-1.821,2.792c0,1.562,0.558,2.801,1.883,2.801c1.022,0,1.395-0.724,1.605-1.555l0.548,0.098
		c-0.241,1.137-0.831,1.93-2.162,1.93c-1.546,0-2.451-1.303-2.451-3.273c0-1.966,0.905-3.27,2.451-3.27
		c1.135,0,1.764,0.804,2.038,1.843L68.013,66.273z"/>
	<path clip-path="url(#SVGID_2_)" fill="none" stroke="#FFFFFF" stroke-width="0.5324" d="M68.013,66.273
		c-0.272-0.932-0.786-1.479-1.552-1.479c-1.264,0-1.821,1.233-1.821,2.792c0,1.563,0.558,2.801,1.882,2.801
		c1.023,0,1.396-0.725,1.606-1.555l0.548,0.098c-0.241,1.137-0.831,1.93-2.162,1.93c-1.547,0-2.451-1.304-2.451-3.273
		c0-1.966,0.904-3.27,2.451-3.27c1.135,0,1.764,0.804,2.038,1.843L68.013,66.273z"/>
	<polygon clip-path="url(#SVGID_2_)" fill="#FFFFFF" points="69.905,64.405 70.486,64.405 70.486,67.227 73.928,67.227 
		73.928,64.405 74.51,64.405 74.51,70.771 73.928,70.771 73.928,67.703 70.486,67.703 70.486,70.771 69.905,70.771 	"/>
	<polygon clip-path="url(#SVGID_2_)" fill="none" stroke="#FFFFFF" stroke-width="0.5324" points="69.905,64.405 70.486,64.405 
		70.486,67.227 73.928,67.227 73.928,64.405 74.51,64.405 74.51,70.772 73.928,70.772 73.928,67.704 70.486,67.704 70.486,70.772 
		69.905,70.772 	"/>
	<path clip-path="url(#SVGID_2_)" fill="#FFFFFF" d="M57.392,1.115c-15.542,0-29.606,6.297-39.794,16.483
		C7.412,27.782,1.114,41.848,1.114,57.393c0,15.541,6.297,29.607,16.483,39.791C27.786,107.37,41.85,113.67,57.392,113.67
		S87,107.37,97.19,97.184c10.187-10.184,16.485-24.25,16.485-39.791c0-15.544-6.299-29.61-16.485-39.794
		C87,7.412,72.934,1.115,57.392,1.115 M57.483,111.945c-30.149,0-54.591-24.444-54.591-54.59c0-30.152,24.441-54.593,54.591-54.593
		c30.146,0,54.593,24.44,54.593,54.593C112.076,87.501,87.629,111.945,57.483,111.945"/>
</g>
</svg>
