<?xml version="1.0" encoding="UTF-8"?>
<svg width="40px" height="40px" viewBox="0 0 40 40" version="1.1" xmlns="http://www.w3.org/2000/svg" xmlns:xlink="http://www.w3.org/1999/xlink">
    <!-- Generator: Sketch 42 (36781) - http://www.bohemiancoding.com/sketch -->
    <title>Mail</title>
    <desc>Created with Sketch.</desc>
    <defs></defs>
    <g id="Symbols" stroke="none" stroke-width="1" fill="none" fill-rule="evenodd">
        <g id="Mail" fill="#FFFFFF">
            <path d="M31.1699444,24.8233889 C31.1699444,25.8078333 30.3771667,26.6000556 29.3927222,26.6000556 L10.6071667,26.6000556 C9.62272222,26.6000556 8.82994444,25.8078333 8.82994444,24.8233889 L8.82994444,15.1767222 C8.82994444,14.9245 8.88716667,14.6878333 8.98105556,14.4706111 L18.5799444,22.0150556 C19.4143889,22.6711667 20.5699444,22.6706111 21.4043889,22.0150556 L31.0193889,14.4706111 C31.1127222,14.6878333 31.1699444,14.9245 31.1699444,15.1767222 L31.1699444,24.8233889 Z M10.6071667,13.4000556 L29.3927222,13.4000556 C29.7510556,13.4000556 30.0821667,13.5039444 30.3605,13.6850556 L20.7693889,21.2217222 C20.2616111,21.6206111 19.7221667,21.6206111 19.2143889,21.2217222 L9.63938889,13.6850556 C9.91827778,13.5039444 10.2488333,13.4000556 10.6071667,13.4000556 L10.6071667,13.4000556 Z M20.0005,5.55555555e-05 C8.95438889,5.55555555e-05 0.0005,8.9545 0.0005,20.0000556 C0.0005,31.0456111 8.95438889,40.0000556 20.0005,40.0000556 C31.0455,40.0000556 40.0005,31.0456111 40.0005,20.0000556 C40.0005,8.9545 31.0455,5.55555555e-05 20.0005,5.55555555e-05 L20.0005,5.55555555e-05 Z" id="Fill-1"></path>
        </g>
    </g>
</svg>