<?xml version="1.0" encoding="UTF-8"?>
<svg width="40px" height="40px" viewBox="0 0 40 40" version="1.1" xmlns="http://www.w3.org/2000/svg" xmlns:xlink="http://www.w3.org/1999/xlink">
    <!-- Generator: Sketch 42 (36781) - http://www.bohemiancoding.com/sketch -->
    <title>TW</title>
    <desc>Created with Sketch.</desc>
    <defs>
        <polygon id="path-1" points="40 39.9999444 40 0 0.000277777777 0 0.000277777777 39.9999444"></polygon>
    </defs>
    <g id="Symbols" stroke="none" stroke-width="1" fill="none" fill-rule="evenodd">
        <g id="TW">
            <mask id="mask-2" fill="white">
                <use xlink:href="#path-1"></use>
            </mask>
            <g id="Clip-2"></g>
            <path d="M30.0586111,16.5538333 C30.3513889,23.0782778 25.4863889,30.3527222 16.8736111,30.3527222 C14.2541667,30.3527222 11.8158333,29.5843889 9.76305556,28.2682778 C12.2236111,28.5582778 14.6802778,27.8760556 16.6302778,26.3471667 C14.6008333,26.3099444 12.8875,24.9688333 12.2975,23.1260556 C13.0241667,23.2649444 13.7391667,23.2243889 14.3919444,23.0471667 C12.1608333,22.5982778 10.6213889,20.5888333 10.6713889,18.4399444 C11.2969444,18.7871667 12.0125,18.9960556 12.7730556,19.0193889 C10.7069444,17.6393889 10.1219444,14.9116111 11.3375,12.8266111 C13.6247222,15.6332778 17.0425,17.4799444 20.8980556,17.6738333 C20.2219444,14.7716111 22.4230556,11.9777222 25.4169444,11.9777222 C26.7513889,11.9777222 27.9569444,12.5405 28.8025,13.4421667 C29.8591667,13.2343889 30.8519444,12.8482778 31.7480556,12.3166111 C31.4019444,13.3999444 30.6663889,14.3093889 29.7086111,14.8827222 C30.6469444,14.7710556 31.5408333,14.5216111 32.3730556,14.1527222 C31.7513889,15.0832778 30.9647222,15.8999444 30.0586111,16.5538333 M20.0002778,-5.55555555e-05 C8.95472222,-5.55555555e-05 0.000277777777,8.95383333 0.000277777777,19.9999444 C0.000277777777,31.0460556 8.95472222,39.9999444 20.0002778,39.9999444 C31.0458333,39.9999444 40.0002778,31.0460556 40.0002778,19.9999444 C40.0002778,8.95383333 31.0458333,-5.55555555e-05 20.0002778,-5.55555555e-05" id="Fill-1" fill="#FFFFFF" mask="url(#mask-2)"></path>
        </g>
    </g>
</svg>