<?xml version="1.0" encoding="UTF-8"?>
<svg width="40px" height="40px" viewBox="0 0 40 40" version="1.1" xmlns="http://www.w3.org/2000/svg" xmlns:xlink="http://www.w3.org/1999/xlink">
    <!-- Generator: Sketch 42 (36781) - http://www.bohemiancoding.com/sketch -->
    <title>YT</title>
    <desc>Created with Sketch.</desc>
    <defs></defs>
    <g id="Symbols" stroke="none" stroke-width="1" fill="none" fill-rule="evenodd">
        <g id="YT" fill="#FFFFFF">
            <path d="M17.8482778,16.8486667 L23.4777222,19.7858889 L17.8493889,22.7025556 L17.8482778,16.8486667 Z M30.4166111,20.787 C30.4166111,22.4731111 30.2088333,24.1586667 30.2088333,24.1586667 C30.2088333,24.1586667 30.0049444,25.5942222 29.3805,26.2264444 C28.5882778,27.0564444 27.6999444,27.0603333 27.2927222,27.1092222 C24.3777222,27.3197778 19.9999444,27.3264444 19.9999444,27.3264444 C19.9999444,27.3264444 14.5832778,27.277 12.9166111,27.117 C12.4532778,27.0303333 11.4121667,27.0564444 10.6193889,26.2264444 C9.99494444,25.5942222 9.79161111,24.1586667 9.79161111,24.1586667 C9.79161111,24.1586667 9.58327778,22.4731111 9.58327778,20.787 L9.58327778,19.2064444 C9.58327778,17.5203333 9.79161111,15.8347778 9.79161111,15.8347778 C9.79161111,15.8347778 9.99494444,14.3986667 10.6193889,13.767 C11.4121667,12.937 12.2999444,12.9331111 12.7071667,12.8842222 C15.6221667,12.6736667 19.9955,12.6736667 19.9955,12.6736667 L20.0043889,12.6736667 C20.0043889,12.6736667 24.3777222,12.6736667 27.2927222,12.8842222 C27.6999444,12.9331111 28.5882778,12.937 29.3805,13.767 C30.0049444,14.3986667 30.2088333,15.8347778 30.2088333,15.8347778 C30.2088333,15.8347778 30.4166111,17.5203333 30.4166111,19.2064444 L30.4166111,20.787 Z M19.9999444,-0.000222222222 C8.95438889,-0.000222222222 -5.55555562e-05,8.95422222 -5.55555562e-05,19.9997778 C-5.55555562e-05,31.0458889 8.95438889,39.9997778 19.9999444,39.9997778 C31.0455,39.9997778 39.9999444,31.0458889 39.9999444,19.9997778 C39.9999444,8.95422222 31.0455,-0.000222222222 19.9999444,-0.000222222222 L19.9999444,-0.000222222222 Z" id="Fill-1"></path>
        </g>
    </g>
</svg>