<?xml version="1.0" encoding="utf-8"?>
<!-- Generator: Adobe Illustrator 18.1.1, SVG Export Plug-In . SVG Version: 6.00 Build 0)  -->
<svg version="1.1" id="Layer_1" xmlns="http://www.w3.org/2000/svg" xmlns:xlink="http://www.w3.org/1999/xlink" x="0px" y="0px"
	 viewBox="-58 -141 432 432" enable-background="new -58 -141 432 432" xml:space="preserve">
<g>
	<g>
		<g>
			<path fill="#212121" d="M11.5,46.8H8.6v14.8h2.9c4.5,0,6.1-1.7,6.1-7.4C17.6,48.5,16,46.8,11.5,46.8z"/>
			<path fill="#212121" d="M122.7,46.8h-2.9v14.8h2.9c4.5,0,6.1-1.7,6.1-7.4C128.8,48.5,127.2,46.8,122.7,46.8z"/>
			<polygon fill="#212121" points="197.7,49.6 197.6,49.6 194.3,70.3 201,70.3 			"/>
		</g>
		<g>
			<line fill="none" x1="77.9" y1="113.3" x2="0" y2="113.3"/>
			<line fill="none" x1="317.1" y1="113.3" x2="239.2" y2="113.3"/>
		</g>
	</g>
	<g>
		<path fill="#212121" d="M170.7,103.1h-5.9v9.4h5.9c3.2,0,5.2-1.8,5.2-4.7C175.9,104.9,174.2,103.1,170.7,103.1z"/>
		<path fill="#212121" d="M158.3-130C45.2-130-46.5-38.3-46.5,74.9c0,113.1,91.7,204.8,204.8,204.8c113.1,0,204.8-91.7,204.8-204.8
			C363.2-38.3,271.5-130,158.3-130z M303.1,40l5.8,18.4h0.1l5.5-18.4h8.4l-10,28.2v20h-8.3v-20l-10-28.2H303.1z M287.4,59.6v7.2
			h-10.7V81h14.8v7.2h-23.1V40h22.2v7.2h-13.9v12.4L287.4,59.6L287.4,59.6z M263.3,81v7.2H242V40h8.3v41L263.3,81L263.3,81z
			 M38.8,1.2C44.5-8.1,51.3-16.7,59-24.4c25.4-25.4,60.5-41.1,99.3-41.1c38.8,0,73.9,15.7,99.3,41.1c7.7,7.7,14.5,16.3,20.3,25.6
			H38.8z M100.8,59.6v7.2H90.1V81h14.8v7.2H81.8V40H104v7.2H90.1v12.4L100.8,59.6L100.8,59.6z M102.2,123.8c3.8,0,5.2-2.7,6-5.8
			l2.1,0.4c-0.9,4.3-3.1,7.2-8.1,7.2c-5.8,0-9.2-4.9-9.2-12.3c0-7.4,3.4-12.3,9.2-12.3c4.3,0,6.6,3,7.6,6.9l-2,0.4
			c-1-3.5-2.9-5.6-5.8-5.6c-4.7,0-6.8,4.6-6.8,10.5C95.2,119.1,97.2,123.8,102.2,123.8z M270.3,159.6c-3.9,5.2-8.1,10-12.7,14.6
			c-25.4,25.4-60.5,41.1-99.3,41.1c-38.8,0-73.9-15.7-99.3-41.1c-4.6-4.6-8.8-9.4-12.7-14.6H270.3z M138.3,88.2h-8.4l-5.9-20
			c-1.1,0.1-2.8,0.2-4.3,0.2v19.8h-8.3V40h11.6c9.3,0,14,3.9,14,14.2c0,7.7-3,10.9-5.8,12.1L138.3,88.2z M117.1,113.7v11.5h-2.2
			v-23.9h2.2v10.6H130v-10.6h2.2v23.9H130v-11.5L117.1,113.7L117.1,113.7z M147.4,123.8c4.2,0,6.5-1.6,6.5-6.2v-16.3h2.2v16.1
			c0,5.4-2.8,8.1-8.6,8.1c-5.8,0-8.6-2.7-8.6-8.1v-16.1h2.2v16.3C141,122.2,143.2,123.8,147.4,123.8z M207.1,113.7v11.5h-2.2v-23.9
			h2.2v10.6H220v-10.6h2.2v23.9H220v-11.5L207.1,113.7L207.1,113.7z M203.7,88.2l-1.5-10.7h-9.1l-1.5,10.7h-8l8.9-48.2h10.3
			l8.9,48.2H203.7z M192.2,123.8c3.8,0,5.2-2.7,6-5.8l2.1,0.4c-0.9,4.3-3.1,7.2-8.1,7.2c-5.8,0-9.2-4.9-9.2-12.3
			c0-7.4,3.4-12.3,9.2-12.3c4.3,0,6.6,3,7.6,6.9l-2,0.4c-1-3.5-2.9-5.6-5.8-5.6c-4.7,0-6.8,4.6-6.8,10.5
			C185.2,119.1,187.3,123.8,192.2,123.8z M174.6,88.2h-8.3L156.3,40h8.1l6,33.4h0.1l6-33.4h8.1L174.6,88.2z M179,125.2h-2.4
			l-5.6-10.9h-6.2v10.9h-2.2v-23.9h8.1c4.7,0,7.3,2.6,7.3,6.5c0,3.1-1.6,5.2-5,6.1L179,125.2z M237.4,88.2h-21.3V40h8.3v41h13
			L237.4,88.2L237.4,88.2z M77.2,40L67.2,88.2h-8.3L48.8,40h8.1l6,33.4h0.1l6-33.4H77.2z M43.1,40v48.2h-8.3V40H43.1z M158.3-74.7
			c55.8,0,104.5,30.6,130.2,75.9h-7.3c-25-41.7-70.7-69.5-122.8-69.5c-52.1,0-97.8,27.9-122.8,69.5h-7.3
			C53.9-44.1,102.5-74.7,158.3-74.7z M0.3,40h11.6c9.3,0,14,3.9,14,14.2c0,7.7-3,10.9-5.8,12.1l7,21.8h-8.4l-5.9-20
			c-1.1,0.1-2.8,0.2-4.3,0.2v19.8H0.3L0.3,40L0.3,40z M0.1,114.3v-2.1h77.9v2.1H0.1z M158.3,224.4c-51.1,0-96.3-25.7-123.3-64.8h7.8
			c26.1,35.5,68.1,58.5,115.5,58.5c47.4,0,89.4-23,115.5-58.5h7.8C254.6,198.7,209.5,224.4,158.3,224.4z M317.1,114.3h-77.9v-2.1
			h77.9V114.3z"/>
	</g>
	<g>
		<path fill="#212121" d="M-57.4,75c0-118.9,96.4-215.3,215.3-215.4l0,0c118.9,0,215.4,96.4,215.4,215.4l0,0
			c0,118.9-96.4,215.3-215.4,215.4l0,0C39.1,290.3-57.4,193.9-57.4,75L-57.4,75z M8.7-74.3C-29.5-36.1-53.2,16.7-53.2,75l0,0
			c0,58.3,23.6,111.1,61.9,149.3l0,0c38.2,38.2,91,61.8,149.3,61.8l0,0c58.3,0,111.1-23.6,149.3-61.8l0,0
			c38.2-38.2,61.9-91,61.9-149.3l0,0c0-58.3-23.6-111.1-61.9-149.3l0,0c-38.2-38.2-91-61.8-149.3-61.9l0,0
			C99.7-136.2,46.9-112.5,8.7-74.3L8.7-74.3z"/>
	</g>
</g>
</svg>
